HIERARCHY
ROOT Hips
{
	OFFSET 0.000000 71.427986 0.000000
	CHANNELS 6 Xposition Yposition Zposition Xrotation Yrotation Zrotation
	JOINT Pelvis
	{
		OFFSET 0.000000 0.000000 0.000000
		CHANNELS 3 Xrotation Yrotation Zrotation
		JOINT LeftUpLeg
		{
			OFFSET 6.797100 -2.508499 -1.318700
			CHANNELS 3 Xrotation Yrotation Zrotation
			JOINT LeftLeg
			{
				OFFSET 0.069008 -29.241863 0.690200
				CHANNELS 3 Xrotation Yrotation Zrotation
				JOINT LeftFoot
				{
					OFFSET -0.069008 -29.568123 -0.266800
					CHANNELS 3 Xrotation Yrotation Zrotation
					JOINT LeftToeBase
					{
						OFFSET 3.145500 -8.631000 16.059900
						CHANNELS 3 Xrotation Yrotation Zrotation
						End Site
						{
							OFFSET 0.000000 18.501587 0.000000
						}
					}
				}
			}
			JOINT Left_ShortSleeve
			{
				OFFSET 0.265923 -10.480953 1.153800
				CHANNELS 3 Xrotation Yrotation Zrotation
				End Site
				{
					OFFSET 1.725763 19.823879 0.000000
				}
			}
		}
		JOINT RightUpLeg
		{
			OFFSET -6.797100 -2.508499 -1.318700
			CHANNELS 3 Xrotation Yrotation Zrotation
			JOINT RightLeg
			{
				OFFSET -0.082453 -29.241932 0.688000
				CHANNELS 3 Xrotation Yrotation Zrotation
				JOINT RightFoot
				{
					OFFSET 0.082453 -29.568058 -0.264600
					CHANNELS 3 Xrotation Yrotation Zrotation
					JOINT RightToeBase
					{
						OFFSET -3.115300 -8.682800 16.113400
						CHANNELS 3 Xrotation Yrotation Zrotation
						End Site
						{
							OFFSET 0.000000 18.567114 0.000000
						}
					}
				}
			}
			JOINT Right_ShortSleeve
			{
				OFFSET -0.265923 -10.480953 1.153800
				CHANNELS 3 Xrotation Yrotation Zrotation
				End Site
				{
					OFFSET -1.725766 19.823910 0.000000
				}
			}
		}
	}
	JOINT Spine
	{
		OFFSET 0.000000 13.368103 0.470500
		CHANNELS 3 Xrotation Yrotation Zrotation
		JOINT Spine1
		{
			OFFSET 0.147000 13.837402 0.538800
			CHANNELS 3 Xrotation Yrotation Zrotation
			JOINT Spine2
			{
				OFFSET 0.168000 16.242897 -1.435500
				CHANNELS 3 Xrotation Yrotation Zrotation
				JOINT Neck
				{
					OFFSET 0.217200 18.631500 -1.679100
					CHANNELS 3 Xrotation Yrotation Zrotation
					JOINT Head
					{
						OFFSET 0.000000 6.599396 1.385900
						CHANNELS 3 Xrotation Yrotation Zrotation
						JOINT Hat
						{
							OFFSET -0.532200 27.220596 -10.096100
							CHANNELS 3 Xrotation Yrotation Zrotation
							End Site
							{
								OFFSET 0.000000 22.029861 0.000000
							}
						}
						JOINT HairD
						{
							OFFSET -10.777400 17.437393 -1.325900
							CHANNELS 3 Xrotation Yrotation Zrotation
							JOINT HairD1
							{
								OFFSET -3.290299 -11.051193 1.062200
								CHANNELS 3 Xrotation Yrotation Zrotation
								End Site
								{
									OFFSET 0.000000 11.579437 0.000000
								}
							}
						}
						JOINT HairB
						{
							OFFSET -10.777400 17.437393 1.467900
							CHANNELS 3 Xrotation Yrotation Zrotation
							JOINT HairB1
							{
								OFFSET -1.561200 -12.956299 3.590200
								CHANNELS 3 Xrotation Yrotation Zrotation
								End Site
								{
									OFFSET 0.000000 13.534866 0.000000
								}
							}
						}
						JOINT HairA
						{
							OFFSET 9.713100 17.437393 1.467900
							CHANNELS 3 Xrotation Yrotation Zrotation
							JOINT HairA1
							{
								OFFSET 1.561200 -12.956299 3.590200
								CHANNELS 3 Xrotation Yrotation Zrotation
								End Site
								{
									OFFSET 0.000000 13.534866 0.000000
								}
							}
						}
						JOINT HairC
						{
							OFFSET 9.713100 17.437393 -1.325900
							CHANNELS 3 Xrotation Yrotation Zrotation
							JOINT HairC1
							{
								OFFSET 3.290300 -11.051193 1.062200
								CHANNELS 3 Xrotation Yrotation Zrotation
								End Site
								{
									OFFSET 0.000000 11.579437 0.000000
								}
							}
						}
					}
				}
				JOINT LeftShoulder
				{
					OFFSET 5.101800 15.108002 -2.763700
					CHANNELS 3 Xrotation Yrotation Zrotation
					JOINT LeftArm
					{
						OFFSET 9.825497 2.506317 -1.597400
						CHANNELS 3 Xrotation Yrotation Zrotation
						JOINT LeftForeArm
						{
							OFFSET 21.966244 0.000000 0.000000
							CHANNELS 3 Xrotation Yrotation Zrotation
							JOINT LeftHand
							{
								OFFSET 33.879036 0.000000 0.000000
								CHANNELS 3 Xrotation Yrotation Zrotation
								JOINT LeftHandThumb1
								{
									OFFSET 6.715286 -2.359680 3.363841
									CHANNELS 3 Xrotation Yrotation Zrotation
									JOINT LeftHandThumb2
									{
										OFFSET 2.507072 -1.447464 1.447461
										CHANNELS 3 Xrotation Yrotation Zrotation
										JOINT LeftHandThumb3
										{
											OFFSET 2.898338 -1.673355 1.673357
											CHANNELS 3 Xrotation Yrotation Zrotation
											End Site
											{
												OFFSET -0.295959 3.727692 -0.131651
											}
										}
									}
								}
								JOINT LeftHandIndex1
								{
									OFFSET 14.190811 -0.254547 3.840278
									CHANNELS 3 Xrotation Yrotation Zrotation
									JOINT LeftHandIndex2
									{
										OFFSET 3.551727 0.000000 -0.000000
										CHANNELS 3 Xrotation Yrotation Zrotation
										JOINT LeftHandIndex3
										{
											OFFSET 2.894196 0.000000 0.000000
											CHANNELS 3 Xrotation Yrotation Zrotation
											End Site
											{
												OFFSET -1.000603 2.690872 0.366626
											}
										}
									}
								}
								JOINT LeftHandMiddle1
								{
									OFFSET 13.776489 0.000000 0.000000
									CHANNELS 3 Xrotation Yrotation Zrotation
									JOINT LeftHandMiddle2
									{
										OFFSET 3.438232 0.000000 0.000000
										CHANNELS 3 Xrotation Yrotation Zrotation
										JOINT LeftHandMiddle3
										{
											OFFSET 3.691551 0.000000 0.000000
											CHANNELS 3 Xrotation Yrotation Zrotation
											End Site
											{
												OFFSET -1.082298 3.499527 0.457670
											}
										}
									}
								}
								JOINT LeftHandRing1
								{
									OFFSET 13.966164 -0.268127 -3.067488
									CHANNELS 3 Xrotation Yrotation Zrotation
									JOINT LeftHandRing2
									{
										OFFSET 3.162567 0.000000 0.000000
										CHANNELS 3 Xrotation Yrotation Zrotation
										JOINT LeftHandRing3
										{
											OFFSET 3.324348 0.000000 0.000000
											CHANNELS 3 Xrotation Yrotation Zrotation
											End Site
											{
												OFFSET -0.861900 3.184998 0.405154
											}
										}
									}
								}
								JOINT LeftHandPinky1
								{
									OFFSET 13.131393 -0.168503 -5.746925
									CHANNELS 3 Xrotation Yrotation Zrotation
									JOINT LeftHandPinky2
									{
										OFFSET 2.849182 0.000000 0.000000
										CHANNELS 3 Xrotation Yrotation Zrotation
										JOINT LeftHandPinky3
										{
											OFFSET 2.805038 0.000000 0.000000
											CHANNELS 3 Xrotation Yrotation Zrotation
											End Site
											{
												OFFSET -0.882500 2.642609 0.325652
											}
										}
									}
								}
							}
							JOINT Left_Sleeve
							{
								OFFSET 6.592125 -0.646545 0.805568
								CHANNELS 3 Xrotation Yrotation Zrotation
								End Site
								{
									OFFSET -0.000179 20.275787 -0.000000
								}
							}
						}
					}
				}
				JOINT RightShoulder
				{
					OFFSET -5.731700 15.108002 -2.763700
					CHANNELS 3 Xrotation Yrotation Zrotation
					JOINT RightArm
					{
						OFFSET -9.825497 2.506317 -1.597400
						CHANNELS 3 Xrotation Yrotation Zrotation
						JOINT RightForeArm
						{
							OFFSET -21.966242 0.000000 0.000000
							CHANNELS 3 Xrotation Yrotation Zrotation
							JOINT RightHand
							{
								OFFSET -33.879032 0.000000 0.000000
								CHANNELS 3 Xrotation Yrotation Zrotation
								JOINT RightHandThumb1
								{
									OFFSET -6.715286 -2.359680 3.363841
									CHANNELS 3 Xrotation Yrotation Zrotation
									JOINT RightHandThumb2
									{
										OFFSET -2.507072 -1.447464 1.447461
										CHANNELS 3 Xrotation Yrotation Zrotation
										JOINT RightHandThumb3
										{
											OFFSET -2.898338 -1.673355 1.673357
											CHANNELS 3 Xrotation Yrotation Zrotation
											End Site
											{
												OFFSET 0.295959 3.727692 -0.131651
											}
										}
									}
								}
								JOINT RightHandIndex1
								{
									OFFSET -14.190811 -0.254547 3.840278
									CHANNELS 3 Xrotation Yrotation Zrotation
									JOINT RightHandIndex2
									{
										OFFSET -3.551727 0.000000 -0.000000
										CHANNELS 3 Xrotation Yrotation Zrotation
										JOINT RightHandIndex3
										{
											OFFSET -2.894196 0.000000 0.000000
											CHANNELS 3 Xrotation Yrotation Zrotation
											End Site
											{
												OFFSET 1.000603 2.690872 0.366626
											}
										}
									}
								}
								JOINT RightHandMiddle1
								{
									OFFSET -13.776489 0.000000 0.000000
									CHANNELS 3 Xrotation Yrotation Zrotation
									JOINT RightHandMiddle2
									{
										OFFSET -3.438232 0.000000 0.000000
										CHANNELS 3 Xrotation Yrotation Zrotation
										JOINT RightHandMiddle3
										{
											OFFSET -3.691551 0.000000 0.000000
											CHANNELS 3 Xrotation Yrotation Zrotation
											End Site
											{
												OFFSET 1.082298 3.499527 0.457670
											}
										}
									}
								}
								JOINT RightHandRing1
								{
									OFFSET -13.966164 -0.268127 -3.067488
									CHANNELS 3 Xrotation Yrotation Zrotation
									JOINT RightHandRing2
									{
										OFFSET -3.162567 0.000000 0.000000
										CHANNELS 3 Xrotation Yrotation Zrotation
										JOINT RightHandRing3
										{
											OFFSET -3.324348 0.000000 0.000000
											CHANNELS 3 Xrotation Yrotation Zrotation
											End Site
											{
												OFFSET 0.861900 3.184998 0.405154
											}
										}
									}
								}
								JOINT RightHandPinky1
								{
									OFFSET -13.131393 -0.168503 -5.746925
									CHANNELS 3 Xrotation Yrotation Zrotation
									JOINT RightHandPinky2
									{
										OFFSET -2.849182 0.000000 0.000000
										CHANNELS 3 Xrotation Yrotation Zrotation
										JOINT RightHandPinky3
										{
											OFFSET -2.805038 0.000000 0.000000
											CHANNELS 3 Xrotation Yrotation Zrotation
											End Site
											{
												OFFSET 0.882500 2.642609 0.325652
											}
										}
									}
								}
							}
							JOINT Right_Sleeve
							{
								OFFSET -6.592125 -0.646545 0.805568
								CHANNELS 3 Xrotation Yrotation Zrotation
								End Site
								{
									OFFSET 0.000179 20.275787 -0.000000
								}
							}
						}
					}
				}
				JOINT Bind_Right_JacketString
				{
					OFFSET -3.534800 11.969597 7.200700
					CHANNELS 3 Xrotation Yrotation Zrotation
					JOINT Bind_Right_JacketString1
					{
						OFFSET -0.319900 -6.102600 2.794100
						CHANNELS 3 Xrotation Yrotation Zrotation
						End Site
						{
							OFFSET 0.000000 6.719452 0.000000
						}
					}
				}
				JOINT Bind_Left_JacketString
				{
					OFFSET 2.904800 11.969597 7.200700
					CHANNELS 3 Xrotation Yrotation Zrotation
					JOINT Bind_Left_JacketString1
					{
						OFFSET 0.364800 -5.904503 3.186800
						CHANNELS 3 Xrotation Yrotation Zrotation
						End Site
						{
							OFFSET 0.000000 6.719513 0.000000
						}
					}
				}
				JOINT HairE
				{
					OFFSET 5.915200 17.612701 -11.592200
					CHANNELS 3 Xrotation Yrotation Zrotation
					JOINT HairE1
					{
						OFFSET 0.289200 -7.171898 -1.284500
						CHANNELS 3 Xrotation Yrotation Zrotation
						End Site
						{
							OFFSET 0.000000 7.291756 0.000000
						}
					}
				}
				JOINT HairF
				{
					OFFSET -0.864800 17.612701 -11.592200
					CHANNELS 3 Xrotation Yrotation Zrotation
					JOINT HairF1
					{
						OFFSET 0.000000 -14.087097 -2.127501
						CHANNELS 3 Xrotation Yrotation Zrotation
						End Site
						{
							OFFSET 0.000000 14.246841 0.000000
						}
					}
				}
				JOINT HairG
				{
					OFFSET -8.087700 17.612701 -11.592200
					CHANNELS 3 Xrotation Yrotation Zrotation
					JOINT HairG1
					{
						OFFSET -0.293600 -6.081398 -0.910100
						CHANNELS 3 Xrotation Yrotation Zrotation
						End Site
						{
							OFFSET 0.000000 6.156120 0.000000
						}
					}
				}
			}
		}
	}
	JOINT Pouch
	{
		OFFSET 0.000000 4.394501 10.847300
		CHANNELS 3 Xrotation Yrotation Zrotation
		End Site
		{
			OFFSET 0.000000 21.880577 0.000000
		}
	}
	JOINT Bag
	{
		OFFSET -13.229000 4.813004 -0.593300
		CHANNELS 3 Xrotation Yrotation Zrotation
		End Site
		{
			OFFSET 0.000000 21.880577 0.000000
		}
	}
	JOINT OccupyGuyFacialAnim_Joint
	{
		OFFSET 1.000000 -70.206398 -1.655000
		CHANNELS 3 Xrotation Yrotation Zrotation
		End Site
		{
			OFFSET 0.000000 21.880577 0.000000
		}
	}
}
MOTION
Frames: 4
Frame Time: 0.033333
0.277432 59.096481 1.665323 18.194879 15.977286 2.788298 -0.000002 0.000000 -0.000000 -62.132223 -5.365919 -15.696031 104.129929 -6.871981 -2.589002 13.686595 -10.134607 18.152322 -0.000001 0.000000 -0.000002 -0.000003 0.000000 -0.000000 -1.013371 -21.616878 0.099597 33.955514 -9.556062 2.325052 -50.249487 -15.097880 5.161307 0.000000 -0.000001 -0.000000 -0.000001 -0.000000 0.000000 22.847113 -4.587004 6.541484 1.045799 -0.510508 -6.794797 -3.734541 6.060537 -13.485301 -7.400647 -18.004939 2.401138 -29.230201 -7.816503 7.408345 -0.000000 0.000000 -0.000000 -0.000000 0.000000 -0.000000 -0.000000 0.000000 -0.000000 -0.000000 0.000000 -0.000000 -0.000000 0.000000 -0.000000 -0.000000 0.000000 -0.000000 -0.000000 0.000000 -0.000000 -0.000000 0.000000 -0.000000 -0.000000 0.000000 -0.000000 7.908802 11.589482 2.838099 -2.714278 -9.936620 -55.733804 0.000010 -35.671066 0.000018 12.354279 12.800636 16.581345 12.891827 -1.049959 5.536561 20.140365 1.177798 42.371007 -0.000001 -0.000003 -0.000001 9.167255 13.857539 -44.828932 1.217564 3.576799 -37.587689 0.000003 -0.000002 0.000003 6.378076 9.509098 -58.153754 3.594487 5.399797 -67.279180 0.000000 0.000001 -0.000001 3.583904 7.728807 -62.972514 3.637018 5.417344 -67.730396 0.000002 0.000002 0.000001 -3.419695 16.346273 -32.096118 5.666263 5.848160 -88.186901 -0.000004 0.000000 0.000001 0.000000 0.000001 -0.000001 3.388284 17.615331 -15.205084 -38.326411 -3.775989 62.269414 -0.006680 93.764864 0.006542 33.824989 10.499450 1.616924 -12.033141 -18.828612 14.628686 23.444889 1.693540 -39.470386 -0.000000 0.000004 -0.000001 -0.915789 1.044421 28.430971 0.778137 -2.579224 33.571339 -0.000000 -0.000001 0.000002 -2.056177 -3.577908 58.273391 2.587381 -4.172861 63.588043 -0.000001 0.000002 -0.000000 -1.305388 -5.127824 70.842667 3.081908 -4.383228 70.210042 -0.000004 0.000003 -0.000003 -0.492120 -23.427960 49.431360 4.494974 -4.654360 88.001817 -0.000001 0.000001 0.000001 0.000003 0.000000 0.000001 -0.000002 0.000000 -0.000000 -0.000002 0.000002 -0.000001 -0.000002 0.000000 -0.000000 -0.000002 0.000000 -0.000000 -0.000002 0.000000 -0.000000 -0.000002 0.000002 -0.000001 -0.000002 0.000000 -0.000000 -0.000002 0.000000 -0.000000 -0.000002 0.000000 -0.000000 -0.000002 0.000002 -0.000001 -0.000002 0.000000 -0.000000 -0.000002 0.000000 -0.000000 -0.000002 0.000000 -0.000000 
0.576612 58.183098 10.993114 22.178970 13.865076 5.378732 -0.000001 -0.000000 -0.000000 -76.620912 1.422656 -15.695589 96.424854 -5.135934 -4.018504 4.046115 -10.131919 19.349180 0.000004 0.000002 -0.000001 0.000001 -0.000000 0.000001 6.930521 -19.186047 -0.876828 24.998569 -10.893478 2.058502 -41.953949 -16.768727 10.047307 0.000000 0.000001 0.000000 0.000000 -0.000001 -0.000000 20.341698 -2.580486 2.094463 -0.744041 1.076687 -6.100906 -5.292475 7.200432 -12.152556 -9.929065 -16.462752 0.764040 -23.624953 -12.421641 5.769103 -0.000000 -0.000000 -0.000000 -0.000000 -0.000000 -0.000000 -0.000000 -0.000000 -0.000000 -0.000000 -0.000000 0.000000 -0.000000 -0.000000 -0.000000 -0.000000 -0.000000 0.000000 -0.000000 -0.000000 -0.000000 -0.000000 -0.000000 -0.000000 -0.000000 -0.000000 -0.000000 6.094300 7.017747 5.355176 13.462865 7.427662 -46.295924 0.000008 -41.213058 0.000012 23.914987 2.025623 0.375775 13.822346 0.090983 -0.723873 21.843802 1.840751 52.337038 0.000003 0.000003 -0.000001 7.976657 14.164451 -38.791049 0.853786 3.047266 -31.297648 0.000001 0.000000 -0.000002 5.092410 9.442463 -48.204374 2.622362 4.882189 -56.462544 0.000001 -0.000000 -0.000005 2.671593 7.232013 -53.358613 2.726886 4.949618 -57.682081 -0.000001 0.000000 -0.000003 -2.492335 11.985715 -28.626453 4.249034 5.628227 -74.083066 -0.000002 -0.000001 0.000003 -0.000000 0.000003 -0.000001 4.128676 16.215376 -20.480976 -42.004390 -4.005382 61.317552 0.000073 98.964639 -0.000078 38.091248 3.548917 4.387633 -11.719741 -15.353692 12.512125 21.384590 0.398505 -34.891673 0.000002 -0.000001 -0.000002 -0.724409 1.339752 25.342254 0.606722 -2.300419 29.546524 -0.000002 0.000000 -0.000001 -2.163427 -2.778950 51.611662 2.050154 -3.860440 55.929841 0.000002 0.000001 -0.000001 -1.653084 -4.238847 62.647199 2.454894 -4.104582 61.752471 0.000000 -0.000000 -0.000001 -1.851948 -21.123239 43.427473 3.673144 -4.552248 77.788758 -0.000000 -0.000000 0.000000 0.000003 0.000001 0.000004 -0.000000 0.000002 -0.000001 0.000002 0.000001 -0.000000 -0.000000 0.000002 -0.000000 -0.000000 0.000002 -0.000000 -0.000000 0.000002 -0.000001 0.000002 0.000001 0.000000 -0.000000 0.000002 -0.000000 -0.000000 0.000002 -0.000000 -0.000000 0.000002 -0.000001 0.000002 0.000001 0.000000 -0.000001 -0.000000 -0.000000 -0.000001 -0.000000 -0.000000 -0.000001 -0.000000 -0.000000 
1.392949 57.202709 19.934908 24.890741 10.062638 6.652248 0.000001 0.000000 -0.000000 -84.918806 4.226678 -7.824957 83.598968 -10.210299 -6.031793 -2.985983 -9.012065 1.957834 -0.000003 0.000001 -0.000000 0.000002 0.000000 0.000000 2.553577 -15.607020 -8.390373 39.438895 -7.754519 0.077028 -24.656645 -14.309794 25.296861 -0.000000 -0.000000 0.000001 0.000000 -0.000000 -0.000000 18.950847 0.622686 -0.945651 -0.806754 3.052397 -5.311035 -5.050573 8.725809 -10.818236 -12.252016 -14.867585 -1.211693 -20.106521 -17.166137 4.925569 -0.000000 -0.000000 -0.000000 -0.000000 -0.000000 -0.000000 -0.000000 -0.000000 -0.000000 -0.000000 -0.000000 -0.000000 -0.000000 0.000000 -0.000000 -0.000000 -0.000000 -0.000000 -0.000000 0.000000 -0.000000 -0.000000 -0.000000 -0.000000 -0.000000 -0.000000 -0.000000 5.196506 1.978640 4.920880 16.065117 15.313644 -39.159715 0.000000 -42.382656 0.000004 20.063185 -7.309382 -3.241194 14.404208 1.499666 -6.854918 23.128583 3.094472 61.782947 0.000002 0.000005 0.000000 6.761459 14.321612 -32.863541 0.555276 2.491427 -25.125148 0.000003 -0.000003 -0.000002 3.901248 9.194465 -38.492439 1.785846 4.211744 -45.940228 0.000002 -0.000001 0.000000 1.918830 6.639355 -44.070880 1.937416 4.352906 -47.969819 -0.000002 0.000001 -0.000002 -0.929222 8.147397 -25.327441 2.951682 5.084360 -60.252220 -0.000004 0.000002 0.000003 0.000002 0.000000 -0.000000 4.351271 15.241974 -20.974422 -43.342642 -6.025459 60.050081 0.000169 99.476910 -0.000156 35.776616 5.947561 3.843540 -11.478521 -11.680721 10.163917 19.186213 -1.473649 -30.089630 0.000001 -0.000001 0.000001 -0.506244 1.674213 21.895271 0.441467 -1.980941 25.124441 -0.000000 0.000003 -0.000001 -2.163250 -1.897389 44.253854 1.517359 -3.441321 47.577356 0.000008 0.000000 -0.000004 -1.872576 -3.222361 53.643729 1.824744 -3.698355 52.510986 0.000001 0.000000 -0.000002 -2.805350 -18.550109 36.974806 2.830969 -4.284897 66.890174 0.000001 -0.000000 0.000000 0.000002 0.000001 0.000003 0.000001 -0.000000 -0.000000 0.000003 -0.000001 -0.000001 0.000001 -0.000000 -0.000000 0.000001 -0.000000 -0.000000 0.000001 -0.000000 -0.000000 0.000003 -0.000001 -0.000001 0.000001 -0.000000 -0.000000 0.000001 -0.000000 -0.000000 0.000001 -0.000000 -0.000000 0.000003 -0.000001 -0.000001 0.000001 0.000000 -0.000000 0.000001 0.000000 -0.000000 0.000001 0.000000 -0.000000 
2.378499 56.671463 28.505444 25.220503 5.336036 7.145670 -0.000000 0.000000 -0.000000 -84.433822 10.159002 -0.890215 67.631789 -1.113394 -6.854218 0.541275 -8.841975 3.761923 -0.000000 -0.000000 -0.000000 -0.000002 0.000000 -0.000000 6.075889 -12.755999 -11.867047 35.578449 7.931317 -2.524997 1.581719 -3.697045 25.509018 -0.000001 -0.000001 0.000002 -0.000000 0.000000 -0.000000 18.372972 3.887563 -2.344373 0.953369 4.576538 -4.895793 -2.866595 9.766612 -9.962683 -14.310662 -13.030858 -2.469824 -19.544480 -19.987092 4.697840 -0.000000 -0.000000 -0.000000 -0.000000 -0.000000 -0.000000 -0.000000 -0.000000 -0.000001 -0.000000 -0.000000 -0.000001 -0.000000 0.000000 -0.000000 -0.000000 -0.000000 -0.000001 -0.000000 0.000000 -0.000000 -0.000000 -0.000000 -0.000000 -0.000000 -0.000000 -0.000000 5.023360 -2.837010 3.178505 19.272919 22.644529 -36.585919 0.000010 -47.333071 0.000007 10.769380 -2.461776 -0.446529 14.104949 2.741918 -10.529253 23.174316 4.194930 67.041367 -0.000002 -0.000002 -0.000002 6.283458 14.356518 -30.531260 0.442760 2.236075 -22.397502 0.000001 -0.000002 -0.000001 3.404312 9.024026 -34.322455 1.427674 3.833758 -40.837998 -0.000000 0.000001 -0.000003 1.643665 6.365607 -40.335559 1.640578 4.066524 -43.927942 -0.000003 0.000005 0.000002 0.221687 6.278966 -24.928520 2.383046 4.715411 -53.602457 0.000001 0.000005 0.000000 -0.000001 0.000001 -0.000000 3.916531 14.354640 -15.834974 -43.255410 -7.208581 58.616642 -0.000124 99.209693 0.000119 28.135156 1.140980 2.233794 -11.158371 -8.462486 8.063677 17.257404 -3.616571 -25.781977 -0.000000 0.000001 0.000001 -0.297964 1.953174 18.875209 0.311023 -1.675011 21.037293 0.000001 -0.000003 0.000002 -2.064909 -1.111837 37.623557 1.083897 -2.988735 39.860345 0.000003 0.000000 -0.000001 -1.930471 -2.284898 45.497966 1.307520 -3.237437 43.976091 0.000003 0.000002 -0.000004 -3.253171 -16.285857 31.214190 2.117146 -3.904825 56.919235 -0.000001 0.000003 -0.000001 0.000002 -0.000002 -0.000002 0.000003 0.000000 -0.000000 0.000002 0.000000 0.000000 0.000003 0.000000 -0.000000 0.000003 0.000000 -0.000000 0.000003 0.000000 -0.000000 0.000002 0.000000 0.000000 0.000003 0.000000 -0.000000 0.000003 0.000000 -0.000000 0.000003 0.000000 -0.000000 0.000002 0.000000 0.000000 -0.000000 0.000000 -0.000000 -0.000000 0.000000 -0.000000 -0.000000 0.000000 -0.000000 
